<?xml version="1.0" standalone="no"?>
<!DOCTYPE svg PUBLIC "-//W3C//DTD SVG 20010904//EN"
 "http://www.w3.org/TR/2001/REC-SVG-20010904/DTD/svg10.dtd">
<svg version="1.0" xmlns="http://www.w3.org/2000/svg"
 width="400.000000pt" height="400.000000pt" viewBox="0 0 400.000000 400.000000"
 preserveAspectRatio="xMidYMid meet">

<g transform="translate(0.000000,400.000000) scale(0.100000,-0.100000)"
fill="#000000" stroke="none">
<path d="M3979 2413 c-8 -9 -57 -37 -108 -61 -89 -43 -101 -46 -195 -50 -56
-2 -166 1 -246 8 -271 22 -398 23 -576 6 -226 -22 -338 -41 -529 -86 -220 -53
-232 -54 -390 -35 -186 23 -263 17 -390 -30 -127 -47 -208 -52 -448 -31 -98 9
-192 15 -210 15 -18 -1 22 -7 88 -14 66 -7 170 -18 230 -25 143 -16 218 -8
346 36 138 48 208 53 391 24 l143 -22 140 32 c122 27 206 45 380 80 22 5 121
16 220 25 189 18 328 17 620 -6 187 -14 313 -7 391 22 83 31 164 85 164 109 0
24 -4 25 -21 3z"/>
<path d="M516 2315 c-9 -13 -16 -36 -16 -50 0 -32 24 -81 44 -88 12 -5 12 -1
3 26 -6 18 -11 56 -11 85 -1 28 -2 52 -2 52 -1 0 -9 -11 -18 -25z"/>
<path d="M710 2235 c13 -14 26 -25 28 -25 3 0 -5 11 -18 25 -13 14 -26 25 -28
25 -3 0 5 -11 18 -25z"/>
<path d="M430 2212 c0 -17 57 -62 87 -68 36 -7 54 11 21 22 -13 4 -40 18 -60
30 -41 26 -48 28 -48 16z"/>
<path d="M420 2180 c1 -8 7 -26 15 -40 29 -51 20 -77 -53 -154 -95 -99 -111
-130 -122 -240 -5 -50 -12 -109 -14 -131 -3 -22 -3 -31 0 -20 3 11 14 44 25
73 10 29 19 64 19 78 0 69 31 133 100 207 77 82 94 115 81 150 -15 38 -51 93
-51 77z"/>
<path d="M804 2166 c11 -9 24 -16 30 -16 12 0 7 5 -24 19 -24 11 -24 11 -6 -3z"/>
<path d="M260 1525 c8 -10 30 -33 49 -50 90 -81 158 -97 296 -70 65 13 109 16
171 11 55 -5 91 -3 105 4 11 7 18 14 15 17 -3 3 -12 0 -21 -7 -12 -10 -26 -10
-73 4 -74 20 -134 20 -224 0 -39 -9 -88 -14 -109 -11 -44 6 -135 47 -164 73
-11 11 -29 26 -40 34 -19 14 -19 14 -5 -5z"/>
<path d="M906 1405 c29 -84 29 -95 2 -173 -15 -43 -31 -118 -37 -167 -19 -182
-47 -218 -527 -686 -103 -101 -139 -130 -179 -144 -70 -24 -126 -48 -122 -51
5 -6 141 38 177 56 58 31 463 416 544 520 104 131 118 162 127 285 5 76 16
132 34 183 27 78 25 114 -11 172 -10 17 -13 18 -8 5z"/>
<path d="M2363 953 c-12 -56 -8 -210 6 -273 7 -30 26 -95 42 -145 15 -49 34
-119 40 -155 15 -83 15 -236 0 -273 -6 -16 -7 -26 -1 -22 18 11 40 108 40 174
0 69 -18 176 -45 271 -9 30 -20 69 -24 85 -4 17 -13 40 -19 51 -17 33 -35 193
-29 261 7 70 2 82 -10 26z"/>
<path d="M2538 973 c18 -2 45 -2 60 0 15 2 0 4 -33 4 -33 0 -45 -2 -27 -4z"/>
<path d="M2740 958 c58 -5 155 -20 215 -33 61 -14 171 -32 245 -41 210 -25
234 -40 507 -310 45 -45 85 -93 88 -107 9 -33 -32 -83 -157 -191 -85 -75 -87
-76 -142 -76 -47 0 -60 -4 -90 -30 -60 -53 -60 -126 1 -155 59 -28 291 -10
373 28 79 37 220 152 220 180 0 9 -42 -25 -80 -63 -29 -30 -122 -85 -177 -105
-59 -22 -85 -25 -194 -25 -109 0 -128 2 -142 18 -24 26 -21 56 8 90 22 27 32
30 94 34 77 4 68 -2 238 164 128 127 128 127 -127 364 -180 168 -215 187 -370
201 -118 10 -208 24 -254 38 -48 15 -203 31 -286 30 l-75 -2 105 -9z"/>
<path d="M1612 875 c-29 -14 -92 -32 -139 -40 -48 -8 -102 -20 -122 -25 -55
-15 -186 -108 -276 -195 -62 -60 -122 -103 -240 -169 -137 -77 -155 -91 -320
-238 -155 -138 -234 -186 -335 -201 -21 -4 -20 -4 6 -6 97 -4 229 76 430 261
54 51 135 106 214 147 98 51 218 133 288 198 156 144 209 175 352 203 64 13
128 33 165 51 61 32 82 33 180 14 27 -6 28 -5 10 6 -10 7 -51 14 -90 15 -58 3
-79 -1 -123 -21z"/>
<path d="M1880 850 c19 -11 40 -19 45 -19 6 0 -6 8 -25 19 -19 11 -39 19 -45
19 -5 0 6 -8 25 -19z"/>
<path d="M2022 763 c62 -67 132 -221 182 -403 15 -52 30 -104 35 -116 7 -17 4
-22 -20 -33 -17 -7 -45 -28 -64 -46 -30 -27 -35 -39 -35 -76 0 -25 7 -55 16
-68 16 -23 21 -23 113 -18 53 2 107 10 121 16 l25 12 -25 -6 c-70 -14 -161
-17 -189 -5 -81 33 -24 160 73 163 31 1 35 4 30 21 -39 142 -106 330 -145 406
-43 85 -115 180 -135 180 -4 0 4 -12 18 -27z"/>
<path d="M10 165 c-6 -8 -10 -19 -8 -24 1 -6 8 1 15 14 13 28 11 31 -7 10z"/>
<path d="M110 20 c8 -5 20 -10 25 -10 6 0 3 5 -5 10 -8 5 -19 10 -25 10 -5 0
-3 -5 5 -10z"/>
</g>
</svg>
