<?xml version="1.0" standalone="no"?>
<!DOCTYPE svg PUBLIC "-//W3C//DTD SVG 20010904//EN"
 "http://www.w3.org/TR/2001/REC-SVG-20010904/DTD/svg10.dtd">
<svg version="1.0" xmlns="http://www.w3.org/2000/svg"
 width="640.000000pt" height="481.000000pt" viewBox="0 0 640.000000 481.000000"
 preserveAspectRatio="xMidYMid meet">

<g transform="translate(0.000000,481.000000) scale(0.100000,-0.100000)"
fill="#000000" stroke="none">
<path d="M6158 4790 c39 -44 -17 -181 -124 -299 -36 -41 -75 -93 -85 -115 -26
-57 -24 -149 5 -292 47 -226 44 -378 -10 -551 -54 -172 -157 -315 -338 -466
-200 -167 -265 -228 -329 -307 -62 -77 -97 -140 -96 -175 0 -11 6 -3 14 19 36
102 117 186 387 403 189 151 269 241 344 386 98 190 121 417 68 662 -15 66
-29 154 -31 196 -6 91 13 143 75 211 112 123 176 290 125 329 -15 11 -16 11
-5 -1z"/>
<path d="M5799 4702 c-103 -66 -191 -202 -210 -324 -13 -85 -1 -172 51 -371
55 -210 65 -282 50 -365 -17 -96 -55 -167 -135 -248 -64 -65 -84 -78 -220
-144 -253 -120 -278 -136 -510 -305 -239 -174 -314 -191 -695 -159 -276 23
-588 23 -783 0 -224 -26 -491 -77 -687 -131 -100 -28 -193 -29 -375 -5 -209
27 -245 23 -435 -41 -179 -61 -240 -67 -445 -44 -82 9 -204 20 -270 24 -139 9
-183 25 -260 91 l-50 44 39 -41 c65 -70 121 -94 244 -104 59 -5 163 -16 232
-26 69 -9 181 -17 250 -17 124 -1 126 0 265 48 176 60 231 65 428 37 207 -29
252 -28 446 18 502 119 850 150 1286 116 266 -21 430 -23 510 -6 96 21 190 71
340 182 187 138 277 194 420 258 149 67 235 122 301 192 147 157 168 306 84
599 -71 247 -83 345 -56 445 28 105 102 212 185 266 45 29 58 39 48 39 -2 0
-23 -13 -48 -28z"/>
<path d="M616 2788 c-30 -43 -15 -119 31 -160 19 -18 19 -17 2 53 -10 38 -16
83 -12 99 7 36 0 38 -21 8z"/>
<path d="M527 2648 c23 -41 84 -73 120 -63 26 6 24 8 -37 41 -35 19 -68 38
-74 44 -22 22 -27 8 -9 -22z"/>
<path d="M490 2668 c0 -4 11 -38 25 -75 34 -89 28 -110 -52 -186 -35 -34 -78
-81 -94 -104 -34 -48 -59 -136 -59 -208 -1 -27 -7 -77 -15 -110 -22 -89 -17
-99 11 -25 13 36 30 106 38 156 18 115 36 150 130 248 80 83 101 125 86 174
-9 29 -70 142 -70 130z"/>
<path d="M5166 2425 c3 -22 30 -105 60 -185 110 -291 99 -398 -67 -652 -99
-152 -153 -257 -193 -379 -63 -187 -58 -308 16 -410 17 -24 42 -62 55 -84 12
-22 23 -33 23 -25 0 9 -20 47 -43 85 -61 97 -71 133 -64 229 10 149 85 326
236 559 120 186 135 225 135 367 1 127 -2 139 -72 300 -25 58 -56 134 -69 170
-19 52 -22 57 -17 25z"/>
<path d="M5209 2444 c6 -12 38 -59 72 -105 83 -112 109 -173 158 -373 52 -213
85 -277 200 -398 87 -91 219 -189 304 -224 37 -15 49 -26 58 -53 6 -18 31 -66
54 -106 24 -40 60 -119 80 -176 34 -96 65 -160 156 -324 18 -33 43 -85 56
-115 12 -30 23 -50 23 -44 0 27 -45 136 -95 230 -30 56 -75 161 -99 233 -25
72 -68 172 -95 224 -28 52 -51 103 -51 114 0 15 -13 26 -50 41 -70 29 -204
118 -273 182 -123 113 -181 209 -227 382 -67 249 -85 289 -179 403 -36 44 -74
92 -84 105 -13 19 -15 20 -8 4z"/>
<path d="M310 1842 c0 -5 25 -33 55 -61 104 -98 190 -117 369 -80 105 21 122
22 197 11 69 -10 87 -9 111 3 l29 14 21 -47 c28 -66 26 -123 -10 -213 -23 -57
-33 -104 -41 -189 -10 -102 -14 -119 -48 -181 -21 -37 -66 -103 -101 -147 -61
-78 -593 -603 -643 -635 -14 -10 -66 -31 -114 -47 -84 -28 -135 -61 -135 -84
0 -6 5 -3 11 7 14 24 55 43 135 63 104 26 132 44 281 181 387 358 536 520 603
657 29 58 34 80 41 183 5 85 15 139 33 192 33 94 32 141 -2 216 l-27 61 -27
-15 c-24 -14 -33 -14 -92 2 -80 21 -155 22 -243 1 -89 -21 -203 -15 -259 14
-22 11 -64 39 -92 62 -29 22 -52 37 -52 32z"/>
<path d="M2840 1173 c-34 -118 -20 -285 40 -478 51 -165 70 -254 77 -366 7
-118 -6 -191 -40 -236 l-21 -28 27 24 c82 74 86 312 10 561 -76 249 -97 372
-83 490 10 75 6 88 -10 33z"/>
<path d="M2981 1186 c3 -3 100 -13 215 -22 150 -11 264 -26 404 -54 107 -21
229 -41 270 -45 204 -17 232 -33 506 -292 159 -151 191 -193 180 -236 -7 -28
-252 -266 -288 -280 -12 -4 -39 -5 -60 -2 -116 20 -226 -141 -145 -211 37 -32
94 -38 254 -26 110 8 152 15 201 36 88 35 174 100 268 198 79 84 249 288 240
288 -2 0 -59 -62 -125 -137 -167 -191 -273 -279 -391 -324 -60 -23 -291 -43
-365 -32 -72 10 -94 53 -59 113 26 43 64 60 137 60 l66 0 124 110 c196 172
219 217 155 301 -41 53 -343 338 -402 378 -73 50 -139 70 -279 86 -73 7 -211
27 -307 44 -99 16 -234 32 -310 35 -74 4 -171 9 -215 12 -44 3 -77 3 -74 0z"/>
<path d="M5020 1135 c0 -3 32 -21 71 -40 45 -23 141 -54 262 -86 408 -106 459
-135 592 -338 80 -122 158 -283 180 -373 21 -83 54 -118 118 -125 64 -7 103
16 133 80 13 29 23 63 23 77 -1 21 -2 21 -6 5 -30 -122 -101 -173 -182 -130
-31 16 -42 39 -66 135 -36 142 -194 421 -290 509 -88 81 -215 126 -546 196
-86 18 -175 43 -198 54 -51 27 -91 42 -91 36z"/>
<path d="M1963 1069 c-38 -19 -104 -38 -170 -50 -216 -39 -266 -64 -468 -240
-154 -135 -182 -155 -325 -234 -148 -81 -200 -119 -325 -234 -139 -129 -253
-216 -330 -253 -76 -36 -171 -39 -225 -8 -35 20 -35 20 -12 1 52 -45 128 -51
222 -18 102 36 194 101 375 262 119 106 147 126 300 210 162 89 202 117 350
249 181 162 237 193 414 230 79 16 151 38 199 61 41 19 82 35 91 35 33 0 174
-40 228 -64 29 -14 53 -23 53 -20 0 11 -152 75 -212 89 -83 19 -92 19 -165
-16z"/>
<path d="M2422 934 c82 -86 150 -236 227 -500 22 -78 41 -146 41 -152 0 -5
-11 -13 -25 -16 -32 -8 -92 -61 -111 -97 -30 -60 -9 -136 46 -159 35 -15 123
-9 210 14 l55 15 -70 -7 c-38 -4 -94 -7 -124 -6 -47 1 -58 5 -79 29 -19 23
-23 36 -18 63 10 66 98 130 157 115 18 -5 21 -3 15 12 -3 10 -25 79 -47 153
-90 298 -184 482 -282 552 -32 23 -32 22 5 -16z"/>
</g>
</svg>
